<?xml version="1.0" standalone="no"?><!DOCTYPE svg PUBLIC "-//W3C//DTD SVG 1.1//EN" "http://www.w3.org/Graphics/SVG/1.1/DTD/svg11.dtd"><svg t="1638864867901" class="icon" viewBox="0 0 1557 1024" version="1.1" xmlns="http://www.w3.org/2000/svg" p-id="7350" xmlns:xlink="http://www.w3.org/1999/xlink" width="304.1015625" height="200"><defs><style type="text/css"></style></defs><path d="M1549.07234 88.238298v851.880851c0 42.485106-34.859574 78.434043-78.434042 78.434042H78.434043c-42.485106 0-78.434043-34.859574-78.434043-78.434042V88.238298C0 45.753191 34.859574 9.804255 78.434043 9.804255H1470.638298c43.574468 0 78.434043 34.859574 78.434042 78.434043z" fill="#4988FD" p-id="7351"></path><path d="M1.089362 221.140426h1547.982978v187.370212H1.089362z" fill="#3973F4" p-id="7352"></path><path d="M897.634043 735.319149H754.92766c-15.251064 0-27.234043-11.982979-27.234043-27.234043s11.982979-27.234043 27.234043-27.234042h142.706383c15.251064 0 27.234043 11.982979 27.234042 27.234042s-11.982979 27.234043-27.234042 27.234043zM667.778723 735.319149H191.72766c-15.251064 0-27.234043-11.982979-27.234043-27.234043s11.982979-27.234043 27.234043-27.234042h476.051063c15.251064 0 27.234043 11.982979 27.234043 27.234042s-11.982979 27.234043-27.234043 27.234043zM405.242553 844.255319H191.72766c-15.251064 0-27.234043-11.982979-27.234043-27.234042s11.982979-27.234043 27.234043-27.234043h213.514893c15.251064 0 27.234043 11.982979 27.234043 27.234043s-11.982979 27.234043-27.234043 27.234042z" fill="#C5DCFA" p-id="7353"></path><path d="M1322.485106 815.931915m-102.4 0a102.4 102.4 0 1 0 204.8 0 102.4 102.4 0 1 0-204.8 0Z" fill="#3973F4" p-id="7354"></path><path d="M1186.314894 815.931915m-102.4 0a102.4 102.4 0 1 0 204.8 0 102.4 102.4 0 1 0-204.8 0Z" fill="#6097FD" p-id="7355"></path></svg>