<svg version="1.1" xmlns="http://www.w3.org/2000/svg" fill-rule="evenodd" clip-rule="evenodd" height="1024" width="1024" viewBox="0 0 1024 1024"><path d="M443.694 728.182c-3.487-7.67-8.591-13.62-15.304-17.859-6.717-4.229-14.254-6.349-22.61-6.349-12.508 0-22.88 4.28-31.124 12.841-8.243 8.561-12.365 21.34-12.365 38.344 0 16.486 4.076 29.133 12.232 37.944 8.156 8.827 18.57 13.23 31.252 13.23 5.99 0 11.638-1.12 16.948-3.363a54.318 54.318 0 0 0-16.6-7.266l4.066-12.19c9.682 2.708 17.664 6.738 23.946 12.098 9.856-8.99 14.787-22.507 14.787-40.55 0-10.256-1.746-19.22-5.228-26.88z m250.675 9.508h49.106v26.982H694.37z m-388.398-9.508c-3.487-7.67-8.591-13.62-15.303-17.859-6.718-4.229-14.255-6.349-22.61-6.349-12.509 0-22.882 4.28-31.125 12.841-8.243 8.561-12.365 21.34-12.365 38.344 0 16.486 4.076 29.133 12.232 37.944 8.156 8.827 18.57 13.23 31.252 13.23 5.99 0 11.638-1.12 16.948-3.363a54.374 54.374 0 0 0-16.6-7.266l4.066-12.19c9.682 2.708 17.664 6.738 23.946 12.098 9.856-8.99 14.787-22.507 14.787-40.55 0-10.256-1.746-19.22-5.228-26.88z" fill="#1871FF"></path><path d="M517.207 27.525C247.357 27.525 28.6 246.282 28.6 516.132s218.757 488.601 488.607 488.601 488.607-218.752 488.607-488.601S787.057 27.525 517.207 27.525z m-207.17 414.188c9.466-31.908 20.428-58.133 20.428-58.133l23.522-57.477s-11.336-74.465 30.745-148.813c42.087-74.347 127.657-73.646 141.328-72.944 13.675 0.701 87.68 6.855 124.497 75.146 36.818 68.29 29.804 122.88 30.51 146.611l22.083 57.047c8.581 22.165 29.466 66.284 32.625 105.912s0.701 47.693-7.015 45.937c-7.716-1.751-43.489-53.304-43.489-53.304-1.751 16.834 1.751 46.295-40.678 92.933a157.184 157.184 0 0 1-2.53 2.693l-0.24 0.256a136.622 136.622 0 0 1-7.962 7.634c11.791 3.794 41.662 14.387 45.962 25.416 5.376 13.793-4.203 15.431-20.577 16.363-16.363 0.937-94.925 3.036-132.567-2.227l-0.778-0.108c-1.818 0.062-3.64 0.103-5.458 0.108h-0.21l-1.541 0.01c-0.81 0-1.639 0-2.468-0.01h-0.148c-2.504-0.02-5.12-0.062-7.829-0.159-0.384 0.062-0.763 0.108-1.172 0.17-37.638 5.257-116.199 3.158-132.562 2.221-16.369-0.932-25.954-2.57-20.578-16.358 0.666-1.7 1.936-3.39 3.65-5.049 8.935-8.611 29.963-16.291 40.628-19.814l1.183-0.384-0.016-0.015c-18.83-16.604-30.556-36.613-37.442-50.427l-0.143-0.297a92.764 92.764 0 0 1-0.712-1.434l-0.19-0.389a289.485 289.485 0 0 1-1.92-4.024l-0.204-0.43-0.44-0.963-0.303-0.655-0.379-0.824-0.327-0.728-0.81-1.776c-6.491-14.203-8.944-41.385-8.944-41.385-3.159 5.263-37.524 62.075-46.996 51.901-9.472-10.168-0.006-60.318 9.466-92.231z m314.997 249.81l-9.165 9.507a403.712 403.712 0 0 0-22.481-20.398l7.956-8.13c9.452 6.922 17.352 13.26 23.69 19.02zM325.99 828.38c-9.108-3.292-18.186-8.468-27.233-15.56-9.395 5.238-19.768 7.865-31.124 7.865-11.47 0-21.873-2.765-31.212-8.3-9.334-5.53-16.527-13.317-21.57-23.347-5.044-10.03-7.568-21.32-7.568-33.884 0-12.508 2.535-23.89 7.609-34.156 5.073-10.26 12.293-18.063 21.657-23.424 9.37-5.36 19.84-8.038 31.427-8.038 11.699 0 22.246 2.78 31.641 8.34 9.395 5.566 16.558 13.343 21.484 23.353 4.925 10.004 7.388 21.273 7.388 33.843 0 10.43-1.587 19.81-4.757 28.14a58.91 58.91 0 0 1-14.346 21.739c7.783 5.36 14.956 9.283 21.53 11.76l-4.926 11.67z m137.723 0c-9.108-3.292-18.186-8.468-27.233-15.56-9.395 5.238-19.768 7.865-31.124 7.865-11.47 0-21.873-2.765-31.212-8.3-9.334-5.53-16.527-13.317-21.57-23.347-5.044-10.03-7.568-21.32-7.568-33.884 0-12.508 2.534-23.89 7.608-34.156 5.074-10.26 12.294-18.063 21.658-23.424 9.37-5.36 19.84-8.038 31.427-8.038 11.699 0 22.246 2.78 31.641 8.34 9.395 5.566 16.558 13.343 21.484 23.353 4.925 10.004 7.388 21.273 7.388 33.843 0 10.43-1.587 19.81-4.757 28.14a58.91 58.91 0 0 1-14.346 21.739c7.783 5.36 14.956 9.283 21.53 11.76l-4.926 11.67z m52.905 1.132c-4.265 3-7.603 5.703-10.025 8.13l-9.339-11.93c4.153-3.809 6.226-8.53 6.226-14.187v-34.58H479.1v-12.457h24.381v-24.034h-9.682v-8.826a210.842 210.842 0 0 1-8.125 13.496 131.942 131.942 0 0 0-8.474-11.766c11.525-18.089 20.404-38.554 26.63-61.373l13.486 3.63a453.489 453.489 0 0 1-7.609 21.442h34.238v12.452h-39.332a278.927 278.927 0 0 1-8.904 18.499h44.437v12.452h-23.353v24.028h25.59v12.457h-25.59v37.007c7.378-4.372 15.862-9.917 25.421-16.599 0.579 3.697 1.5 8.3 2.77 13.83a1195.233 1195.233 0 0 0-28.365 18.329z m126.92-3.103c-2.76 9.457-7.89 14.239-15.39 14.356-6.688 0-13.364-2.595-20.05-7.787-6.4-4.787-11.997-10.773-16.774-17.982a212.352 212.352 0 0 1-42.352 24.72c-1.977-3.241-4.803-7.22-8.49-11.945 16.2-6.743 30.9-15.043 44.094-24.894-5.366-11.53-9.283-25.359-11.76-41.492l-25.59 3.103-1.905-12.099 25.938-3.108a420.29 420.29 0 0 1-2.074-24.468l-22.825 2.509-1.904-12.099 24.125-2.6c-0.522-12.391-0.778-25.99-0.778-40.807h13.491c0.062 14.295 0.323 27.407 0.778 39.337l58.701-6.482 1.388 11.93-59.474 6.655c0.568 8.878 1.264 17.004 2.068 24.387l58.788-7.173 1.388 11.93-58.706 7.265c2.022 13.486 5.068 25.052 9.164 34.667a195.43 195.43 0 0 0 28.954-31.216l10.732 7.956a227.149 227.149 0 0 1-33.199 35.45c4.895 7.491 10.773 13.2 17.634 17.122 7.265 4.839 11.699 3.17 13.317-5.012a257.082 257.082 0 0 0 4.331-26.63c4.839 1.962 9.047 3.4 12.621 4.327-2.201 13.716-4.275 23.741-6.241 30.08z m178.447-9.697c-2.882 12.79-12.687 19.19-29.394 19.19h-86.799c-16.83 0-25.252-8.187-25.252-24.556v-78.674a254.771 254.771 0 0 1-17.981 21.96 71.224 71.224 0 0 0-8.643-12.099c20.05-21.78 34.806-45.65 44.257-71.583l14.188 3.805a354.698 354.698 0 0 1-7.957 17.464h99.59c-0.461 41.144-1.383 69.627-2.76 85.417-1.388 19.138-10.9 28.651-28.529 28.528-4.608 0-12.795-0.23-24.555-0.69a235.628 235.628 0 0 0-2.765-14.352c9.564 0.922 18.038 1.382 25.416 1.382 10.496 0.118 16.138-5.473 16.947-16.768 1.27-14.638 2.079-38.328 2.432-71.065h-92.165a262.308 262.308 0 0 1-12.964 21.263h71.93v50.488h-62.607v32.512c0 9.099 4.788 13.66 14.352 13.66h80.578c10.952 0 17.347-3.522 19.19-10.552 1.73-6.338 3.113-14.817 4.158-25.42 4.96 1.96 9.564 3.63 13.829 5.012-1.393 10.26-2.883 18.621-4.496 25.078z" fill="#1871FF"></path><path d="M451.548 395.28l49.685 0.107L486.02 498.58h25.39l17.07-125.85h-77.696s-18.165 0.876-23.859 20.578c-10.69 76.058-14.228 105.278-14.228 105.278h24.294l14.556-103.307z" fill="#F77708"></path><path d="M460.636 517.622c10.721 22.318 43.55 26.48 43.55 26.48l1.972-22.758c-35.676-2.621-30.628-32.906-30.638-32.824l1.09-7.004 9.411-70.918h-25.385s-1.474 9.575-8.427 69.054c-5.801 43.888-43.008 41.692-43.008 41.692l-2.627 22.758c36.117-3.502 45.747-18.6 54.062-26.48zM627.41 372.73h-28.892l-2.294 15.211h-51.876l-12.15 22.651h61.169s13.68 14.009 6.021 46.649c-7.66 38.988-42.89 84.515-42.89 84.515h32.169c16.747 0 19.2-18.882 19.2-18.882l14.781-112.768h12.8l1.977-22.16h-11.653l1.638-15.216z" fill="#F77708"></path><path d="M560.538 419.789l-29.44 82.514c-4.803 14.669-13.558 13.568-13.558 13.568s-0.44 3.292-3.943 23.639c32.395 3.072 41.375-32.174 41.375-32.174l31.949-87.557-26.383 0.01z" fill="#F77708"></path><path d="M498.898 357.115h6.666l0.978 3.717h3.282l-4.603-16.82h-3.84l-7.639 16.82h3.553l1.603-3.717z m4.203-9.57l1.731 6.77h-5.038l3.307-6.77z m-7.93 0.692a4.89 4.89 0 0 0-0.886-2.37 4.096 4.096 0 0 0-1.838-1.424 8.279 8.279 0 0 0-2.934-0.43h-6.84l-1.649 16.819h3.466l0.63-6.415h2.217c1.495 0 2.504-0.036 3.041-0.113 0.917-0.128 1.639-0.323 2.16-0.568a4.3 4.3 0 0 0 1.42-1.096 5.079 5.079 0 0 0 0.992-1.925 6.21 6.21 0 0 0 0.22-2.478z m-5.095 3.051c-0.589 0.226-1.797 0.343-3.625 0.343h-1.065l0.482-4.859h2.478c1.12 0 1.853 0.062 2.196 0.18 0.338 0.117 0.61 0.307 0.82 0.568a1.961 1.961 0 0 1 0.378 0.998 2.596 2.596 0 0 1-1.664 2.77z m28.575 9.544l0.61-6.231 6.527-10.588h-4.014l-1.997 3.41-1.351 2.227a22.989 22.989 0 0 0-0.81 1.582 36.163 36.163 0 0 0-1.27-2.468l-2.62-4.746h-3.672l5.78 10.266-0.64 6.548h3.457z m8.699-3.18h-3.262l-0.312 3.18h3.267z m23.792 2.412c1.147 0.712 2.489 1.065 4.06 1.065 1.813 0 3.38-0.445 4.7-1.336a7.885 7.885 0 0 0 2.97-3.835c0.66-1.66 0.881-3.38 0.681-5.151-0.23-2.135-1.07-3.845-2.488-5.135s-3.174-1.94-5.258-1.94a8.294 8.294 0 0 0-4.04 0.946 7.388 7.388 0 0 0-2.74 2.576 9.994 9.994 0 0 0-1.356 3.845 11.97 11.97 0 0 0-0.107 3.144c0.117 1.065 0.46 2.124 1.018 3.174 0.558 1.055 1.408 1.935 2.56 2.647z m0.85-11.085c0.881-1.572 2.171-2.36 3.86-2.36 1.102 0 2.039 0.379 2.848 1.131 0.783 0.753 1.264 1.792 1.413 3.113a8.602 8.602 0 0 1-0.44 3.656c-0.42 1.254-1.03 2.181-1.818 2.8a4.137 4.137 0 0 1-2.586 0.922 3.968 3.968 0 0 1-2.913-1.172 4.741 4.741 0 0 1-1.372-2.903 8.33 8.33 0 0 1 1.008-5.187z m29.65 11.848l1.644-16.82h-4.997l-4.419 11.782-1.828-11.781h-4.93l-1.644 16.819h3.123l1.111-14.055 2.166 14.055h3.292l5.084-13.952-1.766 13.952z m-45.486-13.25a4.183 4.183 0 0 1 2.586-0.876c0.87 0 1.602 0.22 2.17 0.66 0.569 0.44 0.999 1.152 1.301 2.13l3.277-0.322a6.81 6.81 0 0 0-2.427-3.984c-1.234-0.973-2.76-1.464-4.587-1.464-1.613 0-3.078 0.42-4.368 1.265-1.28 0.844-2.227 2.053-2.81 3.64-0.61 1.587-0.8 3.338-0.59 5.248 0.277 2.36 1.05 4.157 2.35 5.396s2.97 1.854 5.028 1.854c1.828 0 3.364-0.497 4.614-1.495 1.249-0.999 2.109-2.442 2.585-4.332l-3.548-0.527c-0.24 1.137-0.701 2.002-1.388 2.58a3.497 3.497 0 0 1-2.355 0.87 3.471 3.471 0 0 1-2.544-1.1c-0.727-0.737-1.168-1.777-1.316-3.123a9.39 9.39 0 0 1 0.327-3.697c0.37-1.234 0.927-2.145 1.695-2.724zM461.82 358.02h-9.784l0.547-4.567h8.71l0.27-2.81h-8.708l0.384-3.82h9.006l0.271-2.811h-12.472l-1.639 16.819h13.133z m7.22-14.008h-3.237l-1.638 16.819h3.22l1.106-11.3 5.801 11.3h3.226l1.638-16.82h-3.215l-1.096 11.255z m-31.14 16.819h3.465l1.373-14.008h4.864l0.271-2.811h-13.245l-0.272 2.81h4.93z" fill="#333333"></path><path d="M611.031 356.5h16.978s-9.293-64.179-169.994-20.915c0 0.18 138.357-29.317 153.016 20.915z" fill="#154D98"></path></svg>